<?xml version="1.0" encoding="utf-8"?>
<!-- Generator: Adobe Illustrator 27.4.0, SVG Export Plug-In . SVG Version: 6.00 Build 0)  -->
<svg version="1.1" id="Capa_1" xmlns="http://www.w3.org/2000/svg" xmlns:xlink="http://www.w3.org/1999/xlink" x="0px" y="0px"
	 viewBox="0 0 1125 990.77" style="enable-background:new 0 0 1125 990.77;" xml:space="preserve">
<style type="text/css">
	.st0{fill:none;stroke:#0F0F0E;stroke-miterlimit:10;}
	.st1{fill:#E7FD7B;}
	.st2{fill:#E2F26D;}
	.st3{opacity:0.24;fill:#FFFFFF;}
	.st4{enable-background:new    ;}
	.st5{fill:none;stroke:#000000;stroke-miterlimit:10;}
	.st6{opacity:0.72;fill:#FFFFFF;enable-background:new    ;}
	.st7{opacity:0.49;fill:#FFFFFF;enable-background:new    ;}
	.st8{opacity:0.25;fill:#E7FD7B;}
	.st9{fill:#FFFFFF;}
	.st10{fill:#606060;}
	.st11{fill:#282828;}
</style>
<g>
	<path class="st0" d="M712.78,863.88c0,0-622.8,68.21-572.84-277.23c45.14-312.09,343.64-274.08,463.11-395.22
		s387.73-51.92,444.17,112.48C1103.66,468.32,1066.59,821.63,712.78,863.88z"/>
</g>
<g>
	<path class="st1" d="M678.75,833.97c0,0-661.43,72.44-608.37-294.43c47.94-331.45,364.95-291.08,491.83-419.73
		s411.78-55.14,471.72,119.46S1054.5,789.1,678.75,833.97z"/>
</g>
<path class="st2" d="M74.91,637.48c67.84,256.35,604.37,197.6,604.37,197.6c169.95-20.3,271.08-108.17,325.33-214.49
	c-44.97-19.97-176.89-65.48-445.34-65.48C264.7,555.1,112.51,619.12,74.91,637.48z"/>
<circle class="st3" cx="561.13" cy="494.19" r="319.74"/>
<g>
	<g class="st4">
		<path d="M811.48,118.29c-2.68-8.73-2.6-18.44,0.25-29.12c2.85-10.68,8.75-20.62,17.69-29.81c8.94-9.19,20.58-15.98,34.92-20.39
			c13.32-4.1,25.84-5.26,37.56-3.48c11.71,1.78,21.65,6.04,29.81,12.79c8.16,6.75,13.77,15.08,16.82,25c2.4,7.81,2.92,15.15,1.56,22
			c-1.36,6.86-3.57,13.09-6.62,18.71c-3.05,5.62-8.67,15.22-16.87,28.8c-2.25,3.81-3.98,7.08-5.2,9.82
			c-1.22,2.74-2.01,5.15-2.38,7.22c-0.37,2.08-0.53,4.09-0.48,6.03c0.04,1.95,0.25,5.33,0.63,10.14c1.19,10.1-2.81,16.55-12,19.38
			c-4.78,1.47-9.28,1.14-13.5-0.98c-4.22-2.12-7.28-6.26-9.17-12.42c-2.37-7.72-3.24-14.77-2.58-21.16
			c0.65-6.39,2.29-12.32,4.93-17.81c2.64-5.49,6.41-12.2,11.31-20.15c4.3-6.95,7.36-12.14,9.17-15.57
			c1.81-3.42,3.12-7.02,3.93-10.79c0.8-3.77,0.62-7.53-0.53-11.3c-2.26-7.35-6.9-12.71-13.92-16.09
			c-7.02-3.37-14.85-3.73-23.49-1.08c-10.11,3.11-16.77,7.95-19.98,14.52c-3.21,6.57-4.94,15.33-5.2,26.27
			c0.07,11.35-4.26,18.36-12.99,21.04c-5.15,1.58-10.05,1.11-14.7-1.44C815.76,125.9,812.78,122.51,811.48,118.29z M925.21,248.68
			c-5.61,1.72-11.06,1.41-16.36-0.93c-5.3-2.34-8.95-6.78-10.96-13.3c-1.78-5.79-1.26-11.28,1.57-16.48
			c2.83-5.19,7.18-8.7,13.06-10.5c5.79-1.78,11.27-1.3,16.43,1.43c5.17,2.74,8.64,7,10.42,12.79c1.98,6.43,1.47,12.12-1.54,17.07
			C934.84,243.7,930.63,247.01,925.21,248.68z"/>
	</g>
</g>
<g>
	<g class="st4">
		<path class="st5" d="M850.02,150.51c-2.68-8.73-2.6-18.44,0.25-29.12c2.85-10.68,8.75-20.62,17.69-29.81
			c8.94-9.19,20.58-15.98,34.92-20.39c13.32-4.1,25.84-5.26,37.56-3.48c11.71,1.78,21.65,6.04,29.81,12.79
			c8.16,6.75,13.77,15.08,16.82,25c2.4,7.81,2.92,15.15,1.56,22c-1.36,6.86-3.57,13.09-6.62,18.71c-3.05,5.62-8.67,15.22-16.87,28.8
			c-2.25,3.81-3.98,7.08-5.2,9.82c-1.22,2.74-2.01,5.15-2.38,7.22c-0.37,2.08-0.53,4.09-0.48,6.03c0.04,1.95,0.25,5.33,0.63,10.14
			c1.19,10.1-2.81,16.55-12,19.38c-4.78,1.47-9.28,1.14-13.5-0.98c-4.22-2.12-7.28-6.26-9.17-12.42
			c-2.37-7.72-3.24-14.77-2.58-21.16c0.65-6.39,2.29-12.32,4.93-17.81c2.64-5.49,6.41-12.2,11.31-20.15
			c4.3-6.95,7.36-12.14,9.17-15.57c1.81-3.42,3.12-7.02,3.93-10.79c0.8-3.77,0.62-7.53-0.53-11.3c-2.26-7.35-6.9-12.71-13.92-16.09
			c-7.02-3.37-14.85-3.73-23.49-1.08c-10.11,3.11-16.77,7.95-19.98,14.52c-3.21,6.57-4.94,15.33-5.2,26.27
			c0.07,11.35-4.26,18.36-12.99,21.04c-5.15,1.58-10.05,1.11-14.7-1.44C854.3,158.12,851.32,154.74,850.02,150.51z M963.75,280.91
			c-5.61,1.72-11.06,1.41-16.36-0.93c-5.3-2.34-8.95-6.78-10.96-13.3c-1.78-5.79-1.26-11.28,1.57-16.48
			c2.83-5.19,7.18-8.7,13.06-10.5c5.79-1.78,11.27-1.3,16.43,1.43c5.17,2.74,8.64,7,10.42,12.79c1.98,6.43,1.47,12.12-1.54,17.07
			C973.38,275.93,969.17,279.24,963.75,280.91z"/>
	</g>
</g>
<g class="st4">
	<path d="M228.68,542.15c-1.79,2.57-4.25,4.11-7.38,4.63c-5.31,0.88-9.44-1.68-12.4-7.68c-3.02-5.71-6.23-9.87-9.66-12.49
		c-3.42-2.62-8.21-3.42-14.36-2.4c-5.26,0.87-9.29,3.12-12.11,6.75c-2.82,3.63-3.86,7.68-3.11,12.15c0.38,2.29,1.28,4.33,2.69,6.1
		c1.42,1.78,3.05,3.33,4.91,4.66c1.86,1.33,4.84,3.26,8.94,5.8c4.68,2.9,8.43,5.46,11.27,7.66c2.84,2.2,5.27,4.9,7.29,8.1
		c2.03,3.2,3.43,7.14,4.21,11.84c0.62,3.75,0.1,6.74-1.57,8.97c-1.67,2.23-3.96,3.59-6.87,4.07c-5.59,0.93-9.4-1.43-11.43-7.07
		c-1.07-2.64-1.85-4.48-2.34-5.52c-0.49-1.04-1.1-2.06-1.84-3.06c-0.74-1-1.79-2.06-3.16-3.18c-1.36-1.12-3.14-2.39-5.33-3.81
		c-7.9-5.01-13.39-8.6-16.48-10.76c-3.09-2.16-5.89-4.87-8.42-8.13c-2.52-3.26-4.18-7.27-4.97-12.02c-1-6.04-0.24-11.91,2.29-17.62
		c2.53-5.71,6.65-10.57,12.36-14.59c5.71-4.02,12.62-6.71,20.73-8.05c8.72-1.45,16.66-0.92,23.79,1.57
		c7.14,2.5,12.87,6.19,17.18,11.07c4.32,4.89,6.92,9.99,7.8,15.3C231.15,537.02,230.47,539.59,228.68,542.15z M195.75,631.27
		c-2.89-1.82-4.66-4.69-5.31-8.6c-0.58-3.52,0.13-6.69,2.13-9.49c2.01-2.8,4.77-4.5,8.29-5.08c3.58-0.59,6.8,0.11,9.66,2.11
		c2.86,2,4.58,4.76,5.17,8.28c0.66,3.97-0.1,7.27-2.28,9.9c-2.18,2.63-4.97,4.23-8.39,4.79
		C201.73,633.73,198.64,633.09,195.75,631.27z"/>
</g>
<g class="st4">
	<path class="st5" d="M223.89,571.56c-1.79,2.57-4.25,4.11-7.38,4.63c-5.31,0.88-9.44-1.68-12.4-7.68
		c-3.02-5.71-6.23-9.87-9.66-12.49c-3.42-2.62-8.21-3.42-14.36-2.4c-5.26,0.87-9.29,3.12-12.11,6.75
		c-2.82,3.63-3.86,7.68-3.11,12.15c0.38,2.29,1.28,4.33,2.69,6.1c1.42,1.78,3.05,3.33,4.91,4.66c1.86,1.33,4.84,3.26,8.94,5.8
		c4.68,2.9,8.43,5.46,11.27,7.66c2.84,2.2,5.27,4.9,7.29,8.1c2.03,3.2,3.43,7.14,4.21,11.84c0.62,3.75,0.1,6.74-1.57,8.97
		c-1.67,2.23-3.96,3.59-6.87,4.07c-5.59,0.93-9.4-1.43-11.43-7.07c-1.07-2.64-1.85-4.48-2.34-5.52c-0.49-1.04-1.1-2.06-1.84-3.06
		c-0.74-1-1.79-2.06-3.16-3.18c-1.36-1.12-3.14-2.39-5.33-3.81c-7.9-5.01-13.39-8.6-16.48-10.76c-3.09-2.16-5.89-4.87-8.42-8.13
		c-2.52-3.26-4.18-7.27-4.97-12.02c-1-6.04-0.24-11.91,2.29-17.62c2.53-5.71,6.65-10.57,12.36-14.59s12.62-6.71,20.73-8.05
		c8.72-1.45,16.66-0.92,23.79,1.57c7.14,2.5,12.87,6.19,17.18,11.07c4.32,4.89,6.92,9.99,7.8,15.3
		C226.36,566.42,225.68,568.99,223.89,571.56z M190.96,660.68c-2.89-1.82-4.66-4.69-5.31-8.6c-0.58-3.52,0.13-6.69,2.13-9.49
		c2.01-2.8,4.77-4.5,8.29-5.08c3.58-0.59,6.8,0.11,9.66,2.11c2.86,2,4.58,4.76,5.17,8.28c0.66,3.97-0.1,7.27-2.28,9.9
		c-2.18,2.63-4.97,4.23-8.39,4.79C196.94,663.13,193.85,662.5,190.96,660.68z"/>
</g>
<ellipse class="st6" cx="561.62" cy="666.5" rx="212.46" ry="58.49"/>
<g>
	<path class="st7" d="M349.01,666.5v-0.93C348.95,665.85,348.95,666.16,349.01,666.5z"/>
	<path class="st7" d="M653.04,41.9L440.41,192.32l-91.4,474.19c0,0,31.03-58.49,212.46-58.49s211.78,57.56,211.78,57.56L653.04,41.9
		z"/>
</g>
<circle class="st1" cx="270.5" cy="174.45" r="29.1"/>
<circle class="st1" cx="979.93" cy="810.68" r="29.1"/>
<circle class="st8" cx="374.87" cy="935.01" r="48.12"/>
<circle class="st1" cx="230.85" cy="724.99" r="29.1"/>
<circle class="st9" cx="979.93" cy="345.48" r="50.6"/>
<path class="st5" d="M699.27,0"/>
<path class="st10" d="M421.96,714.72c-4.45-9.8-11.55-18.02-16.12-27.8c-7.95-17-13.72-34.47-16.11-53.21
	c-1.6-12.52-1.75-25.1-0.86-37.42c1.66-23.11,7.53-45.48,18.96-65.93c11.4-20.4,25.31-38.9,43.81-53.47
	c20.29-15.98,42.71-27.68,68.05-33.72c16.83-4.01,33.86-5.64,50.98-4.81c23.35,1.13,45.41,7.27,66.7,17.49
	c17.98,8.64,33.88,19.68,47.43,33.93c25.29,26.6,41.25,57.9,46.97,94.54c4.26,27.3,2.11,53.98-6.15,79.94
	c-7.32,23.01-19.22,43.76-35.61,61.92c-16.42,18.19-35.67,32.66-57.66,42.7c-16.49,7.53-34.1,12.88-52.7,13.8
	c-7.85,0.39-15.68,0.98-23.56,0.96c-13.07-0.04-25.95-1.52-38.52-5.16c-19.44-5.62-38.38-12.3-54.31-25.43
	c-1.64-1.36-3.38-2.64-5.67-2.69c0.01-1.18-0.63-1.88-1.57-2.55c-9.06-6.48-16.5-14.71-24.35-22.51
	C428.26,721.91,426.64,716.9,421.96,714.72z M424.59,612.76c-0.63,74.71,64.63,136.29,137.96,134.96
	c39.13-0.71,72.57-14.99,99.1-43.76c28-30.35,40.62-67.56,35.94-107.74c-7.4-63.53-58.34-122.2-137.92-122.1
	C484.6,474.21,423.04,536.87,424.59,612.76z"/>
<path class="st11" d="M421.96,714.72c4.68,2.19,6.3,7.2,9.71,10.59c7.85,7.8,15.29,16.03,24.35,22.51c0.94,0.67,1.58,1.37,1.57,2.55
	c-2.5-0.02-3.62,2.03-5.08,3.48c-11.92,11.9-23.72,23.92-35.77,35.69c-2.56,2.51-2.99,3.88-0.1,6.41c4.16,3.64,7.63,8.1,11.87,11.63
	c4.01,3.35,3.36,5.45-0.07,8.86c-33.63,33.32-67.09,66.81-100.59,100.26c-12.83,12.81-25.72,25.54-38.4,38.49
	c-3.32,3.39-5.24,3.71-9,0.04c-22.86-22.34-46.06-44.33-69.31-66.58c12.6-12.54,23.44-22.9,33.78-33.74
	c15.09-15.83,30.83-31.01,46.14-46.63c11.32-11.55,22.88-22.97,34.63-34.15c10.93-10.41,21.47-21.25,31.86-32.22
	c2.59-2.73,3.72-1.43,5.45,0.3c4.22,4.23,8.49,8.4,12.63,12.69c2.13,2.2,3.89,2.79,6.35,0.28
	C395.24,741.62,408.62,728.19,421.96,714.72z"/>
</svg>
