<?xml version="1.0" encoding="utf-8"?>
<!-- Generator: Adobe Illustrator 27.4.0, SVG Export Plug-In . SVG Version: 6.00 Build 0)  -->
<svg version="1.1" id="Capa_1" xmlns="http://www.w3.org/2000/svg" xmlns:xlink="http://www.w3.org/1999/xlink" x="0px" y="0px"
	 viewBox="0 0 1125 1250" style="enable-background:new 0 0 1125 1250;" xml:space="preserve">
<style type="text/css">
	.st0{opacity:0.6;}
	.st1{fill:#E7FD7B;}
	.st2{fill:none;stroke:#FFFFFF;stroke-width:8;stroke-miterlimit:10;}
	.st3{fill:none;stroke:#020202;stroke-miterlimit:10;}
	.st4{fill:#FFFFFF;}
	.st5{fill:#686868;}
	.st6{fill:#262626;}
	.st7{fill:none;stroke:#303030;stroke-width:2;stroke-miterlimit:10;}
</style>
<g class="st0">
	<path class="st1" d="M699.1,1023.3c0,0-661.43,72.44-608.37-294.43c47.94-331.45,364.95-291.08,491.83-419.73
		S994.34,254,1054.28,428.6S1074.86,978.43,699.1,1023.3z"/>
</g>
<circle class="st1" cx="569.5" cy="690.5" r="317.5"/>
<path class="st2" d="M119.67,881.64c78.3,46.51,222.38,104.46,399.38,49.35c270.12-84.1,274.2-442.96,454.12-448.84
	c38.37-1.25,70.7,5.12,97.82,15.92"/>
<g id="yEuOSm_00000125581328343435576140000012975703008844941712_">
	<g>
		<path class="st3" d="M413.21,735.01c0.01,0,0.03-0.01,0.04-0.01c1.73,5.87,3.46,11.74,5.19,17.62c2.91,9.9,5.79,19.81,8.71,29.71
			c2.77,9.39,5.57,18.78,8.34,28.17c2.89,9.81,5.75,19.64,8.64,29.45c0.99,3.36,2.05,6.69,3.05,10.04c1.2,4.01,3.34,7.49,6.03,10.64
			c1.73,2.02,3.76,3.65,6.17,4.8c2.53,1.2,5.18,1.54,7.92,0.86c1.27-0.32,2.53-0.69,3.79-1.06c4.61-1.36,9.23-2.72,13.84-4.08
			c6.63-1.95,13.25-3.92,19.89-5.84c3.2-0.93,5.54-2.9,7.17-5.75c1.14-1.99,1.89-4.13,2.27-6.39c0.8-4.83,0.44-9.58-0.94-14.26
			c-3.3-11.15-6.6-22.3-9.89-33.46c-2.99-10.15-5.96-20.31-8.95-30.46c-2.91-9.9-5.85-19.79-8.77-29.69
			c-2.84-9.65-5.67-19.3-8.5-28.95c-3.01-10.23-6.03-20.47-9.04-30.7c-2.87-9.73-5.74-19.46-8.6-29.19
			c-2.82-9.56-5.63-19.13-8.45-28.69c-1.68-5.7-3.37-11.4-5.07-17.1c-1.06-3.56-2.72-6.82-5.01-9.74c-1.79-2.29-3.84-4.31-6.39-5.76
			c-3.02-1.72-6.16-2.27-9.58-1.19c-4,1.26-8.06,2.36-12.08,3.54c-8.14,2.39-16.25,4.88-24.42,7.16c-3.84,1.07-6.44,3.36-8.11,6.86
			c-1.33,2.8-1.99,5.77-2.14,8.86c-0.19,3.8,0.41,7.49,1.48,11.12c2.4,8.14,4.79,16.28,7.19,24.41c2.77,9.39,5.57,18.78,8.34,28.17
			c2.92,9.9,5.8,19.81,8.71,29.71C407.07,714.21,410.14,724.61,413.21,735.01z M701.5,649.42c0.86,2.94,1.73,5.87,2.59,8.81
			c2.88,9.82,5.74,19.64,8.63,29.46c2.87,9.73,5.78,19.45,8.64,29.18c2.62,8.89,5.2,17.79,7.81,26.69
			c1.87,6.38,3.74,12.75,5.64,19.12c0.45,1.51,0.93,3.01,1.55,4.46c1.86,4.41,4.4,8.34,8.21,11.35c3.83,3.01,7.95,3.97,12.77,2.48
			c10.61-3.28,21.29-6.32,31.95-9.46c1.17-0.35,2.34-0.72,3.51-1.08c3.09-0.95,5.32-2.94,6.86-5.74c0.89-1.62,1.5-3.34,1.87-5.16
			c1-4.99,0.75-9.91-0.67-14.78c-3.34-11.42-6.69-22.83-10.05-34.24c-4.7-15.94-9.42-31.87-14.11-47.81
			c-4.79-16.27-9.56-32.56-14.35-48.83c-4.84-16.44-9.71-32.88-14.56-49.32c-4.6-15.6-9.18-31.21-13.75-46.82
			c-0.69-2.36-1.55-4.64-2.65-6.84c-1.91-3.81-4.46-7.1-7.97-9.57c-3.48-2.45-7.15-3.25-11.4-1.93c-9.77,3.04-19.62,5.82-29.43,8.71
			c-2.35,0.69-4.69,1.41-7.03,2.12c-2.26,0.69-4.02,2.06-5.39,3.96c-1.03,1.43-1.78,3.01-2.32,4.68c-0.81,2.52-1.14,5.11-1.17,7.75
			c-0.04,3.45,0.65,6.77,1.62,10.06c2.45,8.3,4.9,16.61,7.34,24.92c2.78,9.48,5.54,18.97,8.33,28.45c2.92,9.9,5.87,19.79,8.79,29.68
			C695.68,629.62,698.59,639.52,701.5,649.42z M473.7,673.42c-0.16,1.07,0.24,1.97,0.51,2.87c1.58,5.37,3.19,10.73,4.77,16.1
			c4.71,16.03,9.42,32.06,14.13,48.08c0.44,1.51,0.9,3.02,1.39,4.51c0.15,0.47,0.42,0.9,0.67,1.45c0.64-0.14,1.15-0.23,1.64-0.37
			c4.03-1.17,8.06-2.34,12.09-3.53c7.89-2.32,15.77-4.67,23.65-6.99c7.8-2.3,15.61-4.58,23.41-6.87c8.22-2.42,16.44-4.85,24.66-7.27
			c7.63-2.25,15.27-4.49,22.9-6.75c7.89-2.33,15.77-4.67,23.65-6.99c7.89-2.32,15.78-4.63,23.66-6.95
			c8.05-2.37,16.11-4.74,24.16-7.12c9.23-2.72,18.45-5.45,27.68-8.19c0.56-0.17,1.08-0.47,1.72-0.76c-0.22-0.87-0.37-1.64-0.59-2.38
			c-1.82-6.21-3.66-12.42-5.49-18.63c-4.73-16.11-9.46-32.22-14.2-48.34c-0.22-0.76-0.42-1.52-0.71-2.25
			c-0.18-0.45-0.49-0.85-0.8-1.36c-69.41,20.45-138.7,40.86-207.99,61.27C474.31,673.06,474.02,673.26,473.7,673.42z M357.88,751.34
			c-0.01,0-0.03,0.01-0.04,0.01c1.75,5.95,3.5,11.91,5.26,17.86c2.92,9.89,5.86,19.78,8.78,29.68c2.06,6.96,4.11,13.92,6.15,20.88
			c0.97,3.31,2.52,6.33,4.5,9.13c1.68,2.38,3.69,4.44,6.16,6c3.43,2.17,7.05,2.85,11.02,1.58c3.91-1.26,7.88-2.34,11.82-3.5
			c1.26-0.37,2.51-0.76,3.77-1.11c4.07-1.15,6.85-3.75,8.41-7.63c0.55-1.37,1-2.81,1.3-4.25c0.94-4.53,0.72-9.07-0.52-13.5
			c-1.91-6.82-3.98-13.59-5.98-20.38c-2.89-9.81-5.79-19.62-8.68-29.44c-2.84-9.65-5.67-19.29-8.51-28.94
			c-2.89-9.81-5.8-19.62-8.69-29.43c-2.84-9.64-5.64-19.3-8.51-28.94c-1.08-3.63-2.77-6.99-5.02-10.04
			c-2.32-3.15-5.15-5.7-8.89-7.09c-2.1-0.78-4.24-1.05-6.42-0.4c-6.04,1.78-12.07,3.59-18.11,5.35c-2.56,0.75-4.56,2.26-5.93,4.48
			c-0.91,1.47-1.68,3.08-2.23,4.72c-1.06,3.18-1.34,6.49-1.05,9.84c0.24,2.8,0.85,5.52,1.64,8.21c3.47,11.74,6.95,23.47,10.42,35.21
			C351.66,730.21,354.77,740.78,357.88,751.34z M776.15,627.93c2.82,9.56,5.64,19.13,8.45,28.69c2.81,9.57,5.59,19.14,8.41,28.7
			c1.29,4.36,2.57,8.73,4.01,13.04c1.49,4.48,4.06,8.31,7.56,11.49c4.07,3.69,8.65,5.17,14.02,3.23c0.41-0.15,0.84-0.25,1.26-0.37
			c4.36-1.29,8.69-2.68,13.09-3.85c4.04-1.07,6.72-3.58,8.39-7.29c1.17-2.58,1.7-5.32,1.84-8.14c0.22-4.43-0.62-8.69-1.86-12.91
			c-8.44-28.6-16.86-57.21-25.29-85.82c-4.57-15.52-9.14-31.04-13.72-46.56c-0.84-2.85-1.76-5.68-3.23-8.29
			c-2.13-3.78-4.8-7.09-8.54-9.41c-3.04-1.89-6.25-2.51-9.78-1.42c-5.43,1.68-10.88,3.31-16.36,4.8c-3.28,0.89-5.54,2.84-7.13,5.73
			c-1.96,3.55-2.58,7.39-2.53,11.39c0.04,3.8,0.89,7.46,1.96,11.07c3.47,11.74,6.96,23.48,10.42,35.22
			C770.13,607.46,773.14,617.7,776.15,627.93z M364.91,800.51c-0.02-0.28,0.03-0.64-0.07-0.96c-9.12-31.02-18.26-62.04-27.4-93.06
			c-0.07-0.23-0.29-0.42-0.49-0.71c-0.49,0.1-1.01,0.15-1.49,0.32c-5.18,1.88-9.24,5.23-12.42,9.67c-1.94,2.71-3.54,5.62-4.7,8.75
			c-2.14,5.79-3.25,11.78-3.31,17.95c-0.08,8.92,1.46,17.55,4.68,25.89c2.51,6.49,5.88,12.46,10.29,17.86
			c3.58,4.37,7.73,8.05,12.58,10.97c3.18,1.92,6.59,3.21,10.21,3.98c3.28,0.7,6.59,0.79,9.9,0.2
			C363.44,801.24,364.26,801.22,364.91,800.51z M814.65,565.09c-0.02,0.31-0.11,0.59-0.04,0.82c9.13,31.03,18.27,62.05,27.42,93.08
			c0.09,0.32,0.31,0.6,0.52,0.99c0.64-0.15,1.25-0.21,1.79-0.43c2.6-1.08,5-2.47,7.13-4.35c4.51-3.98,7.52-8.93,9.54-14.53
			c2.29-6.33,3.17-12.89,3.02-19.58c-0.22-9.55-2.37-18.68-6.31-27.4c-2.5-5.52-5.57-10.69-9.55-15.28
			c-4.16-4.81-8.94-8.84-14.73-11.58c-4.52-2.14-9.24-3.18-14.24-2.78C817.64,564.17,816.07,564.29,814.65,565.09z"/>
		<path class="st3" d="M413.21,735.01c-3.06-10.4-6.13-20.8-9.19-31.2c-2.91-9.9-5.8-19.81-8.71-29.71
			c-2.77-9.39-5.56-18.78-8.34-28.17c-2.4-8.13-4.79-16.27-7.19-24.41c-1.07-3.63-1.67-7.32-1.48-11.12
			c0.15-3.09,0.81-6.06,2.14-8.86c1.66-3.51,4.26-5.79,8.11-6.86c8.17-2.27,16.28-4.76,24.42-7.16c4.03-1.18,8.08-2.28,12.08-3.54
			c3.42-1.08,6.56-0.53,9.58,1.19c2.55,1.45,4.6,3.47,6.39,5.76c2.28,2.92,3.95,6.18,5.01,9.74c1.7,5.7,3.39,11.4,5.07,17.1
			c2.82,9.56,5.63,19.13,8.45,28.69c2.87,9.73,5.74,19.46,8.6,29.19c3.02,10.23,6.03,20.47,9.04,30.7c2.84,9.65,5.66,19.3,8.5,28.95
			c2.92,9.9,5.85,19.79,8.77,29.69c2.99,10.15,5.96,20.31,8.95,30.46c3.29,11.16,6.59,22.31,9.89,33.46
			c1.39,4.68,1.74,9.44,0.94,14.26c-0.38,2.27-1.12,4.4-2.27,6.39c-1.63,2.85-3.97,4.82-7.17,5.75c-6.64,1.92-13.26,3.89-19.89,5.84
			c-4.61,1.36-9.22,2.73-13.84,4.08c-1.26,0.37-2.52,0.74-3.79,1.06c-2.74,0.68-5.38,0.34-7.92-0.86c-2.4-1.14-4.44-2.78-6.17-4.8
			c-2.7-3.15-4.84-6.63-6.03-10.64c-1-3.35-2.06-6.69-3.05-10.04c-2.89-9.81-5.75-19.64-8.64-29.45
			c-2.77-9.39-5.57-18.78-8.34-28.17c-2.92-9.9-5.8-19.8-8.71-29.71c-1.72-5.87-3.46-11.74-5.19-17.62
			C413.24,735,413.22,735.01,413.21,735.01z"/>
		<path class="st3" d="M701.5,649.42c-2.92-9.9-5.83-19.8-8.75-29.7c-2.92-9.9-5.87-19.78-8.79-29.68
			c-2.79-9.48-5.55-18.97-8.33-28.45c-2.44-8.31-4.89-16.61-7.34-24.92c-0.97-3.29-1.66-6.61-1.62-10.06
			c0.03-2.64,0.36-5.23,1.17-7.75c0.54-1.68,1.29-3.25,2.32-4.68c1.37-1.9,3.13-3.28,5.39-3.96c2.34-0.71,4.68-1.43,7.03-2.12
			c9.81-2.89,19.66-5.68,29.43-8.71c4.25-1.32,7.92-0.52,11.4,1.93c3.51,2.47,6.06,5.76,7.97,9.57c1.1,2.2,1.96,4.48,2.65,6.84
			c4.56,15.61,9.15,31.22,13.75,46.82c4.84,16.44,9.71,32.88,14.56,49.32c4.79,16.27,9.56,32.56,14.35,48.83
			c4.69,15.94,9.42,31.87,14.11,47.81c3.36,11.41,6.71,22.82,10.05,34.24c1.42,4.87,1.67,9.8,0.67,14.78
			c-0.36,1.82-0.98,3.54-1.87,5.16c-1.54,2.8-3.77,4.79-6.86,5.74c-1.17,0.36-2.34,0.73-3.51,1.08
			c-10.65,3.14-21.34,6.18-31.95,9.46c-4.82,1.49-8.94,0.53-12.77-2.48c-3.81-3-6.35-6.94-8.21-11.35c-0.61-1.45-1.1-2.95-1.55-4.46
			c-1.9-6.37-3.77-12.75-5.64-19.12c-2.61-8.9-5.19-17.8-7.81-26.69c-2.87-9.73-5.78-19.45-8.64-29.18
			c-2.89-9.81-5.75-19.64-8.63-29.46C703.24,655.29,702.37,652.35,701.5,649.42z"/>
		<path class="st3" d="M473.7,673.42c0.32-0.16,0.61-0.35,0.93-0.45c69.29-20.42,138.58-40.83,207.99-61.27
			c0.3,0.51,0.62,0.91,0.8,1.36c0.28,0.73,0.48,1.5,0.71,2.25c4.73,16.11,9.46,32.22,14.2,48.34c1.82,6.21,3.66,12.42,5.49,18.63
			c0.22,0.75,0.38,1.51,0.59,2.38c-0.64,0.28-1.16,0.59-1.72,0.76c-9.22,2.74-18.45,5.47-27.68,8.19
			c-8.05,2.38-16.11,4.75-24.16,7.12c-7.89,2.32-15.78,4.63-23.66,6.95c-7.89,2.32-15.77,4.66-23.65,6.99
			c-7.63,2.25-15.27,4.5-22.9,6.75c-8.22,2.42-16.44,4.85-24.66,7.27c-7.8,2.29-15.61,4.58-23.41,6.87
			c-7.89,2.32-15.77,4.66-23.65,6.99c-4.03,1.19-8.06,2.36-12.09,3.53c-0.49,0.14-1,0.23-1.64,0.37c-0.26-0.54-0.52-0.98-0.67-1.45
			c-0.49-1.5-0.94-3-1.39-4.51c-4.71-16.03-9.41-32.06-14.13-48.08c-1.58-5.37-3.19-10.73-4.77-16.1
			C473.94,675.39,473.53,674.49,473.7,673.42z"/>
		<path class="st3" d="M357.88,751.34c-3.11-10.57-6.22-21.13-9.34-31.7c-3.47-11.74-6.94-23.47-10.42-35.21
			c-0.8-2.69-1.4-5.41-1.64-8.21c-0.29-3.35-0.02-6.66,1.05-9.84c0.55-1.64,1.32-3.25,2.23-4.72c1.37-2.22,3.36-3.73,5.93-4.48
			c6.04-1.76,12.07-3.57,18.11-5.35c2.19-0.65,4.32-0.38,6.42,0.4c3.74,1.39,6.57,3.94,8.89,7.09c2.25,3.05,3.94,6.41,5.02,10.04
			c2.87,9.64,5.67,19.29,8.51,28.94c2.89,9.81,5.8,19.62,8.69,29.43c2.84,9.64,5.67,19.29,8.51,28.94
			c2.89,9.81,5.78,19.62,8.68,29.44c2,6.79,4.07,13.57,5.98,20.38c1.24,4.43,1.46,8.97,0.52,13.5c-0.3,1.45-0.75,2.88-1.3,4.25
			c-1.56,3.89-4.34,6.49-8.41,7.63c-1.26,0.36-2.52,0.74-3.77,1.11c-3.94,1.16-7.91,2.24-11.82,3.5c-3.97,1.27-7.59,0.59-11.02-1.58
			c-2.47-1.56-4.48-3.62-6.16-6c-1.98-2.8-3.53-5.82-4.5-9.13c-2.04-6.96-4.09-13.92-6.15-20.88c-2.92-9.89-5.86-19.78-8.78-29.68
			c-1.76-5.95-3.51-11.91-5.26-17.86C357.85,751.35,357.87,751.35,357.88,751.34z"/>
		<path class="st3" d="M776.15,627.93c-3.01-10.23-6.02-20.47-9.05-30.7c-3.47-11.74-6.96-23.48-10.42-35.22
			c-1.07-3.61-1.92-7.27-1.96-11.07c-0.04-4,0.58-7.84,2.53-11.39c1.59-2.89,3.86-4.84,7.13-5.73c5.49-1.49,10.93-3.12,16.36-4.8
			c3.53-1.09,6.73-0.47,9.78,1.42c3.74,2.32,6.41,5.63,8.54,9.41c1.47,2.61,2.39,5.44,3.23,8.29c4.58,15.52,9.15,31.04,13.72,46.56
			c8.43,28.61,16.85,57.22,25.29,85.82c1.25,4.22,2.08,8.49,1.86,12.91c-0.14,2.82-0.67,5.56-1.84,8.14
			c-1.68,3.71-4.35,6.21-8.39,7.29c-4.39,1.17-8.73,2.56-13.09,3.85c-0.42,0.12-0.85,0.22-1.26,0.37
			c-5.37,1.94-9.96,0.46-14.02-3.23c-3.5-3.18-6.07-7.01-7.56-11.49c-1.44-4.31-2.72-8.68-4.01-13.04
			c-2.82-9.56-5.6-19.14-8.41-28.7C781.79,647.06,778.97,637.49,776.15,627.93z"/>
		<path class="st3" d="M364.91,800.51c-0.65,0.71-1.46,0.73-2.22,0.86c-3.31,0.59-6.61,0.5-9.9-0.2c-3.62-0.77-7.03-2.06-10.21-3.98
			c-4.84-2.92-9-6.6-12.58-10.97c-4.41-5.39-7.78-11.37-10.29-17.86c-3.22-8.33-4.76-16.96-4.68-25.89
			c0.05-6.18,1.17-12.16,3.31-17.95c1.16-3.14,2.76-6.05,4.7-8.75c3.18-4.44,7.24-7.79,12.42-9.67c0.48-0.17,1-0.22,1.49-0.32
			c0.21,0.29,0.43,0.48,0.49,0.71c9.14,31.02,18.28,62.04,27.4,93.06C364.94,799.87,364.89,800.23,364.91,800.51z"/>
		<path class="st3" d="M814.65,565.09c1.42-0.79,2.98-0.92,4.54-1.05c5-0.4,9.72,0.64,14.24,2.78c5.8,2.74,10.57,6.78,14.73,11.58
			c3.98,4.59,7.04,9.76,9.55,15.28c3.95,8.71,6.09,17.84,6.31,27.4c0.15,6.69-0.73,13.25-3.02,19.58
			c-2.03,5.6-5.03,10.55-9.54,14.53c-2.12,1.87-4.53,3.27-7.13,4.35c-0.54,0.22-1.15,0.28-1.79,0.43c-0.21-0.39-0.42-0.67-0.52-0.99
			c-9.15-31.02-18.29-62.05-27.42-93.08C814.54,565.67,814.63,565.4,814.65,565.09z"/>
	</g>
</g>
<g id="yEuOSm_00000012469035448646094470000015614701462329937800_">
	<g>
		<path class="st4" d="M393.27,723.1c0.01,0,0.03-0.01,0.04-0.01c1.73,5.87,3.46,11.74,5.19,17.62c2.91,9.9,5.79,19.81,8.71,29.71
			c2.77,9.39,5.57,18.78,8.34,28.17c2.89,9.81,5.75,19.64,8.64,29.45c0.99,3.36,2.05,6.69,3.05,10.04c1.2,4.01,3.34,7.49,6.03,10.64
			c1.73,2.02,3.76,3.65,6.17,4.8c2.53,1.2,5.18,1.54,7.92,0.86c1.27-0.32,2.53-0.69,3.79-1.06c4.61-1.36,9.23-2.72,13.84-4.08
			c6.63-1.95,13.25-3.92,19.89-5.84c3.2-0.93,5.54-2.9,7.17-5.75c1.14-1.99,1.89-4.13,2.27-6.39c0.8-4.83,0.44-9.58-0.94-14.26
			c-3.3-11.15-6.6-22.3-9.89-33.46c-2.99-10.15-5.96-20.31-8.95-30.46c-2.91-9.9-5.85-19.79-8.77-29.69
			c-2.84-9.65-5.67-19.3-8.5-28.95c-3.01-10.23-6.03-20.47-9.04-30.7c-2.87-9.73-5.74-19.46-8.6-29.19
			c-2.82-9.56-5.63-19.13-8.45-28.69c-1.68-5.7-3.37-11.4-5.07-17.1c-1.06-3.56-2.72-6.82-5.01-9.74c-1.79-2.29-3.84-4.31-6.39-5.76
			c-3.02-1.72-6.16-2.27-9.58-1.19c-4,1.26-8.06,2.36-12.08,3.54c-8.14,2.39-16.25,4.88-24.42,7.16c-3.84,1.07-6.44,3.36-8.11,6.86
			c-1.33,2.8-1.99,5.77-2.14,8.86c-0.19,3.8,0.41,7.49,1.48,11.12c2.4,8.14,4.79,16.28,7.19,24.41c2.77,9.39,5.57,18.78,8.34,28.17
			c2.92,9.9,5.8,19.81,8.71,29.71C387.13,702.3,390.2,712.7,393.27,723.1z M681.56,637.51c0.86,2.94,1.73,5.87,2.59,8.81
			c2.88,9.82,5.74,19.64,8.63,29.46c2.87,9.73,5.78,19.45,8.64,29.18c2.62,8.89,5.2,17.79,7.81,26.69
			c1.87,6.38,3.74,12.75,5.64,19.12c0.45,1.51,0.93,3.01,1.55,4.46c1.86,4.41,4.4,8.34,8.21,11.35c3.83,3.01,7.95,3.97,12.77,2.48
			c10.61-3.28,21.29-6.32,31.95-9.46c1.17-0.35,2.34-0.72,3.51-1.08c3.09-0.95,5.32-2.94,6.86-5.74c0.89-1.62,1.5-3.34,1.87-5.16
			c1-4.99,0.75-9.91-0.67-14.78c-3.34-11.42-6.69-22.83-10.05-34.24c-4.7-15.94-9.42-31.87-14.11-47.81
			c-4.79-16.27-9.56-32.56-14.35-48.83c-4.84-16.44-9.71-32.88-14.56-49.32c-4.6-15.6-9.18-31.21-13.75-46.82
			c-0.69-2.36-1.55-4.64-2.65-6.84c-1.91-3.81-4.46-7.1-7.97-9.57c-3.48-2.45-7.15-3.25-11.4-1.93c-9.77,3.04-19.62,5.82-29.43,8.71
			c-2.35,0.69-4.69,1.41-7.03,2.12c-2.26,0.69-4.02,2.06-5.39,3.96c-1.03,1.43-1.78,3.01-2.32,4.68c-0.81,2.52-1.14,5.11-1.17,7.75
			c-0.04,3.45,0.65,6.77,1.62,10.06c2.45,8.3,4.9,16.61,7.34,24.92c2.78,9.48,5.54,18.97,8.33,28.45c2.92,9.9,5.87,19.79,8.79,29.68
			C675.73,617.71,678.64,627.61,681.56,637.51z M453.75,661.51c-0.16,1.07,0.24,1.97,0.51,2.87c1.58,5.37,3.19,10.73,4.77,16.1
			c4.71,16.03,9.42,32.06,14.13,48.08c0.44,1.51,0.9,3.02,1.39,4.51c0.15,0.47,0.42,0.9,0.67,1.45c0.64-0.14,1.15-0.23,1.64-0.37
			c4.03-1.17,8.06-2.34,12.09-3.53c7.89-2.32,15.77-4.67,23.65-6.99c7.8-2.3,15.61-4.58,23.41-6.87c8.22-2.42,16.44-4.85,24.66-7.27
			c7.63-2.25,15.27-4.49,22.9-6.75c7.89-2.33,15.77-4.67,23.65-6.99c7.89-2.32,15.78-4.63,23.66-6.95
			c8.05-2.37,16.11-4.74,24.16-7.12c9.23-2.72,18.45-5.45,27.68-8.19c0.56-0.17,1.08-0.47,1.72-0.76c-0.22-0.87-0.37-1.64-0.59-2.38
			c-1.82-6.21-3.66-12.42-5.49-18.63c-4.73-16.11-9.46-32.22-14.2-48.34c-0.22-0.76-0.42-1.52-0.71-2.25
			c-0.18-0.45-0.49-0.85-0.8-1.36c-69.41,20.45-138.7,40.86-207.99,61.27C454.36,661.16,454.08,661.35,453.75,661.51z
			 M337.94,739.44c-0.01,0-0.03,0.01-0.04,0.01c1.75,5.95,3.5,11.91,5.26,17.86c2.92,9.89,5.86,19.78,8.78,29.68
			c2.06,6.96,4.11,13.92,6.15,20.88c0.97,3.31,2.52,6.33,4.5,9.13c1.68,2.38,3.69,4.44,6.16,6c3.43,2.17,7.05,2.85,11.02,1.58
			c3.91-1.26,7.88-2.34,11.82-3.5c1.26-0.37,2.51-0.76,3.77-1.11c4.07-1.15,6.85-3.75,8.41-7.63c0.55-1.37,1-2.81,1.3-4.25
			c0.94-4.53,0.72-9.07-0.52-13.5c-1.91-6.82-3.98-13.59-5.98-20.38c-2.89-9.81-5.79-19.62-8.68-29.44
			c-2.84-9.64-5.67-19.29-8.51-28.94c-2.89-9.81-5.8-19.62-8.69-29.43c-2.84-9.64-5.64-19.3-8.51-28.94
			c-1.08-3.63-2.77-6.99-5.02-10.04c-2.32-3.15-5.15-5.7-8.89-7.09c-2.1-0.78-4.24-1.05-6.42-0.4c-6.04,1.78-12.07,3.59-18.11,5.35
			c-2.56,0.75-4.56,2.26-5.93,4.48c-0.91,1.47-1.68,3.08-2.23,4.72c-1.06,3.18-1.34,6.49-1.05,9.84c0.24,2.8,0.85,5.52,1.64,8.21
			c3.47,11.74,6.95,23.47,10.42,35.21C331.72,718.3,334.82,728.87,337.94,739.44z M756.21,616.02c2.82,9.56,5.64,19.13,8.45,28.69
			c2.81,9.57,5.59,19.14,8.41,28.7c1.29,4.36,2.57,8.73,4.01,13.04c1.49,4.48,4.06,8.31,7.56,11.49c4.07,3.69,8.65,5.17,14.02,3.23
			c0.41-0.15,0.84-0.25,1.26-0.37c4.36-1.29,8.69-2.68,13.09-3.85c4.04-1.07,6.72-3.58,8.39-7.29c1.17-2.58,1.7-5.32,1.84-8.14
			c0.22-4.43-0.62-8.69-1.86-12.91c-8.44-28.6-16.86-57.21-25.29-85.82c-4.57-15.52-9.14-31.04-13.72-46.56
			c-0.84-2.85-1.76-5.68-3.23-8.29c-2.13-3.78-4.8-7.09-8.54-9.41c-3.04-1.89-6.25-2.51-9.78-1.41c-5.43,1.68-10.88,3.31-16.36,4.8
			c-3.28,0.89-5.54,2.84-7.13,5.73c-1.96,3.55-2.58,7.39-2.53,11.39c0.04,3.8,0.89,7.46,1.96,11.07
			c3.47,11.74,6.96,23.48,10.42,35.22C750.19,595.55,753.19,605.79,756.21,616.02z M344.97,788.6c-0.02-0.28,0.03-0.64-0.07-0.96
			c-9.12-31.02-18.26-62.04-27.4-93.06c-0.07-0.23-0.29-0.42-0.49-0.71c-0.49,0.1-1.01,0.15-1.49,0.32
			c-5.18,1.88-9.24,5.23-12.42,9.67c-1.94,2.71-3.54,5.62-4.7,8.75c-2.14,5.79-3.25,11.78-3.31,17.95
			c-0.08,8.92,1.46,17.55,4.68,25.89c2.51,6.49,5.88,12.46,10.29,17.86c3.58,4.37,7.73,8.05,12.58,10.97
			c3.18,1.92,6.59,3.21,10.21,3.98c3.28,0.7,6.59,0.79,9.9,0.2C343.5,789.33,344.32,789.31,344.97,788.6z M794.71,553.18
			c-0.02,0.31-0.11,0.59-0.04,0.82c9.13,31.03,18.27,62.05,27.42,93.08c0.09,0.32,0.31,0.6,0.52,0.99c0.64-0.15,1.25-0.21,1.79-0.43
			c2.6-1.08,5-2.47,7.13-4.35c4.51-3.98,7.52-8.93,9.54-14.53c2.29-6.33,3.17-12.89,3.02-19.58c-0.22-9.55-2.37-18.68-6.31-27.4
			c-2.5-5.52-5.57-10.69-9.55-15.28c-4.16-4.81-8.94-8.84-14.73-11.58c-4.52-2.14-9.24-3.18-14.24-2.78
			C797.69,552.26,796.13,552.39,794.71,553.18z"/>
		<path d="M393.27,723.1c-3.06-10.4-6.13-20.8-9.19-31.2c-2.91-9.9-5.8-19.81-8.71-29.71c-2.77-9.39-5.56-18.78-8.34-28.17
			c-2.4-8.13-4.79-16.27-7.19-24.41c-1.07-3.63-1.67-7.32-1.48-11.12c0.15-3.09,0.81-6.06,2.14-8.86c1.66-3.51,4.26-5.79,8.11-6.86
			c8.17-2.27,16.28-4.76,24.42-7.16c4.03-1.18,8.08-2.28,12.08-3.54c3.42-1.08,6.56-0.53,9.58,1.19c2.55,1.45,4.6,3.47,6.39,5.76
			c2.28,2.92,3.95,6.18,5.01,9.74c1.7,5.7,3.39,11.4,5.07,17.1c2.82,9.56,5.63,19.13,8.45,28.69c2.87,9.73,5.74,19.46,8.6,29.19
			c3.02,10.23,6.03,20.47,9.04,30.7c2.84,9.65,5.66,19.3,8.5,28.95c2.92,9.9,5.85,19.79,8.77,29.69
			c2.99,10.15,5.96,20.31,8.95,30.46c3.29,11.16,6.59,22.31,9.89,33.46c1.39,4.68,1.74,9.44,0.94,14.26
			c-0.38,2.27-1.12,4.4-2.27,6.39c-1.63,2.85-3.97,4.82-7.17,5.75c-6.64,1.92-13.26,3.89-19.89,5.84
			c-4.61,1.36-9.22,2.73-13.84,4.08c-1.26,0.37-2.52,0.74-3.79,1.06c-2.74,0.68-5.38,0.34-7.92-0.86c-2.4-1.14-4.44-2.78-6.17-4.8
			c-2.7-3.15-4.84-6.63-6.03-10.64c-1-3.35-2.06-6.69-3.05-10.04c-2.89-9.81-5.75-19.64-8.64-29.45
			c-2.77-9.39-5.57-18.78-8.34-28.17c-2.92-9.9-5.8-19.8-8.71-29.71c-1.72-5.87-3.46-11.74-5.19-17.62
			C393.29,723.1,393.28,723.1,393.27,723.1z"/>
		<path d="M681.56,637.51c-2.92-9.9-5.83-19.8-8.75-29.7c-2.92-9.9-5.87-19.78-8.79-29.68c-2.79-9.48-5.55-18.97-8.33-28.45
			c-2.44-8.31-4.89-16.61-7.34-24.92c-0.97-3.29-1.66-6.61-1.62-10.06c0.03-2.64,0.36-5.23,1.17-7.75c0.54-1.68,1.29-3.25,2.32-4.68
			c1.37-1.9,3.13-3.28,5.39-3.96c2.34-0.71,4.68-1.43,7.03-2.12c9.81-2.89,19.66-5.68,29.43-8.71c4.25-1.32,7.92-0.52,11.4,1.93
			c3.51,2.47,6.06,5.76,7.97,9.57c1.1,2.2,1.96,4.48,2.65,6.84c4.56,15.61,9.15,31.22,13.75,46.82
			c4.84,16.44,9.71,32.88,14.56,49.32c4.79,16.27,9.56,32.56,14.35,48.83c4.69,15.94,9.42,31.87,14.11,47.81
			c3.36,11.41,6.71,22.82,10.05,34.24c1.42,4.87,1.67,9.8,0.67,14.78c-0.36,1.82-0.98,3.54-1.87,5.16c-1.54,2.8-3.77,4.79-6.86,5.74
			c-1.17,0.36-2.34,0.73-3.51,1.08c-10.65,3.14-21.34,6.18-31.95,9.46c-4.82,1.49-8.94,0.53-12.77-2.48
			c-3.81-3-6.35-6.94-8.21-11.35c-0.61-1.45-1.1-2.95-1.55-4.46c-1.9-6.37-3.77-12.75-5.64-19.12c-2.61-8.89-5.19-17.8-7.81-26.69
			c-2.87-9.73-5.78-19.45-8.64-29.18c-2.89-9.81-5.75-19.64-8.63-29.46C683.29,643.38,682.43,640.44,681.56,637.51z"/>
		<path class="st5" d="M453.75,661.51c0.32-0.16,0.61-0.35,0.93-0.45c69.29-20.42,138.58-40.83,207.99-61.27
			c0.3,0.51,0.62,0.91,0.8,1.36c0.28,0.73,0.48,1.5,0.71,2.25c4.73,16.11,9.46,32.22,14.2,48.34c1.82,6.21,3.66,12.42,5.49,18.63
			c0.22,0.75,0.38,1.51,0.59,2.38c-0.64,0.28-1.16,0.59-1.72,0.76c-9.22,2.74-18.45,5.47-27.68,8.19
			c-8.05,2.38-16.11,4.75-24.16,7.12c-7.89,2.32-15.78,4.63-23.66,6.95c-7.89,2.32-15.77,4.66-23.65,6.99
			c-7.63,2.25-15.27,4.5-22.9,6.75c-8.22,2.42-16.44,4.85-24.66,7.27c-7.8,2.29-15.61,4.58-23.41,6.87
			c-7.89,2.32-15.77,4.66-23.65,6.99c-4.03,1.19-8.06,2.36-12.09,3.53c-0.49,0.14-1,0.23-1.64,0.37c-0.26-0.54-0.52-0.98-0.67-1.45
			c-0.49-1.5-0.94-3-1.39-4.51c-4.71-16.03-9.41-32.06-14.13-48.08c-1.58-5.37-3.19-10.73-4.77-16.1
			C454,663.48,453.59,662.58,453.75,661.51z"/>
		<path class="st6" d="M337.94,739.44c-3.11-10.57-6.22-21.13-9.34-31.7c-3.47-11.74-6.94-23.47-10.42-35.21
			c-0.8-2.69-1.4-5.41-1.64-8.21c-0.29-3.35-0.02-6.66,1.05-9.84c0.55-1.64,1.32-3.25,2.23-4.72c1.37-2.22,3.36-3.73,5.93-4.48
			c6.04-1.76,12.07-3.57,18.11-5.35c2.19-0.65,4.32-0.38,6.42,0.4c3.74,1.39,6.57,3.94,8.89,7.09c2.25,3.05,3.94,6.41,5.02,10.04
			c2.87,9.64,5.67,19.29,8.51,28.94c2.89,9.81,5.8,19.62,8.69,29.43c2.84,9.64,5.67,19.29,8.51,28.94
			c2.89,9.81,5.78,19.62,8.68,29.44c2,6.79,4.07,13.57,5.98,20.38c1.24,4.43,1.46,8.97,0.52,13.5c-0.3,1.45-0.75,2.88-1.3,4.25
			c-1.56,3.89-4.34,6.49-8.41,7.63c-1.26,0.36-2.52,0.74-3.77,1.11c-3.94,1.16-7.91,2.24-11.82,3.5c-3.97,1.27-7.59,0.59-11.02-1.58
			c-2.47-1.56-4.48-3.62-6.16-6c-1.98-2.8-3.53-5.82-4.5-9.13c-2.04-6.96-4.09-13.92-6.15-20.88c-2.92-9.89-5.86-19.78-8.78-29.68
			c-1.76-5.95-3.51-11.91-5.26-17.86C337.91,739.44,337.92,739.44,337.94,739.44z"/>
		<path class="st6" d="M756.21,616.02c-3.01-10.23-6.02-20.47-9.05-30.7c-3.47-11.74-6.96-23.48-10.42-35.22
			c-1.07-3.61-1.92-7.27-1.96-11.07c-0.04-4,0.58-7.84,2.53-11.39c1.59-2.89,3.86-4.84,7.13-5.73c5.48-1.49,10.93-3.12,16.36-4.8
			c3.53-1.09,6.73-0.47,9.78,1.41c3.74,2.32,6.41,5.63,8.54,9.41c1.47,2.61,2.39,5.44,3.23,8.29c4.58,15.52,9.15,31.04,13.72,46.56
			c8.43,28.61,16.85,57.22,25.29,85.82c1.25,4.22,2.08,8.49,1.86,12.91c-0.14,2.82-0.67,5.56-1.84,8.14
			c-1.68,3.71-4.35,6.21-8.39,7.29c-4.39,1.17-8.73,2.56-13.09,3.85c-0.42,0.12-0.85,0.22-1.26,0.37
			c-5.37,1.94-9.96,0.46-14.02-3.23c-3.5-3.18-6.07-7.01-7.56-11.49c-1.44-4.31-2.72-8.68-4.01-13.04
			c-2.82-9.56-5.6-19.14-8.41-28.7C761.85,635.15,759.03,625.58,756.21,616.02z"/>
		<path class="st5" d="M344.97,788.6c-0.65,0.71-1.46,0.73-2.22,0.86c-3.31,0.59-6.61,0.5-9.9-0.2c-3.62-0.77-7.03-2.06-10.21-3.98
			c-4.84-2.92-9-6.6-12.58-10.97c-4.41-5.39-7.78-11.37-10.29-17.86c-3.22-8.33-4.76-16.96-4.68-25.89
			c0.05-6.18,1.17-12.16,3.31-17.95c1.16-3.14,2.76-6.05,4.7-8.75c3.18-4.44,7.24-7.79,12.42-9.67c0.48-0.17,1-0.22,1.49-0.32
			c0.21,0.29,0.43,0.48,0.49,0.71c9.14,31.02,18.28,62.04,27.4,93.06C344.99,787.96,344.95,788.32,344.97,788.6z"/>
		<path class="st5" d="M794.71,553.18c1.42-0.79,2.98-0.92,4.54-1.05c5-0.4,9.72,0.64,14.24,2.78c5.8,2.74,10.57,6.78,14.73,11.58
			c3.98,4.59,7.04,9.76,9.55,15.28c3.95,8.71,6.09,17.84,6.31,27.4c0.15,6.69-0.73,13.25-3.02,19.58
			c-2.03,5.6-5.03,10.55-9.54,14.53c-2.12,1.87-4.53,3.27-7.13,4.35c-0.54,0.22-1.15,0.28-1.79,0.43c-0.21-0.39-0.42-0.67-0.52-0.99
			c-9.15-31.02-18.29-62.05-27.42-93.08C794.6,553.77,794.69,553.49,794.71,553.18z"/>
	</g>
</g>
<circle class="st1" cx="782.39" cy="304.07" r="31.79"/>
<circle class="st1" cx="969.69" cy="983.9" r="27.14"/>
<circle class="st4" cx="324.92" cy="520.12" r="37.92"/>
<circle class="st1" cx="295.26" cy="1028.76" r="59.1"/>
<g>
	<g>
		<path class="st1" d="M411.02,859.59c1.75,3.71,3.62,7.62,6.78,10.36c3,2.6,7.04,4.12,10.99,3.09c1.87-0.49,1.07-3.38-0.8-2.89
			c-3.14,0.82-6.39-0.65-8.63-2.82c-2.64-2.55-4.21-5.97-5.75-9.24c-0.35-0.73-1.4-0.92-2.05-0.54
			C410.81,857.97,410.68,858.85,411.02,859.59L411.02,859.59z"/>
	</g>
</g>
<g>
	<g>
		<path class="st4" d="M256.04,527.9c-1.97-18.72,6.37-37.45,22.03-48.04c4.12-2.78,8.58-4.98,13.32-6.48
			c1.54-0.49,2.54-2.09,2.1-3.69c-0.42-1.52-2.14-2.59-3.69-2.1c-19.43,6.16-34.56,22.51-38.78,42.52
			c-1.23,5.84-1.6,11.85-0.98,17.79c0.17,1.61,1.26,3,3,3C254.53,530.9,256.21,529.52,256.04,527.9L256.04,527.9z"/>
	</g>
</g>
<g>
	<g>
		<path class="st1" d="M232.53,487.78c1.12-14.47,11.58-28.11,25.39-32.93c1.53-0.53,2.55-2.05,2.1-3.69
			c-0.41-1.48-2.15-2.63-3.69-2.1c-12.79,4.46-22.89,14.81-27.46,27.52c-1.3,3.61-2.04,7.38-2.34,11.2c-0.13,1.62,1.47,3,3,3
			C231.26,490.78,232.41,489.41,232.53,487.78L232.53,487.78z"/>
	</g>
</g>
<g>
	<g>
		<path class="st1" d="M208.05,1076.74c3.95,7.42,9.69,13.76,16.13,19.1c6.73,5.59,14.14,10.44,21.86,14.55
			c15.61,8.32,33.4,13.45,51.18,11.16c9.66-1.25,19.05-4.45,27.04-10.11c1.32-0.94,1.95-2.62,1.08-4.1
			c-0.76-1.31-2.78-2.02-4.1-1.08c-13.09,9.28-29.93,11.62-45.49,8.65c-16.4-3.13-31.96-11.32-45.07-21.51
			c-6.98-5.42-13.25-11.84-17.43-19.69c-0.76-1.43-2.75-1.87-4.1-1.08C207.68,1073.48,207.28,1075.3,208.05,1076.74L208.05,1076.74z
			"/>
	</g>
</g>
<g>
	<g>
		<path class="st1" d="M226.24,1132.37c18.13,12.98,40.63,19.72,62.9,19.22c6.29-0.14,12.57-0.88,18.73-2.16
			c1.59-0.33,2.5-2.2,2.1-3.69c-0.45-1.65-2.1-2.43-3.69-2.1c-20.51,4.26-42.48,1.58-61.44-7.33c-5.46-2.56-10.67-5.62-15.57-9.13
			c-1.32-0.94-3.34-0.23-4.1,1.08C224.28,1129.77,224.92,1131.42,226.24,1132.37L226.24,1132.37z"/>
	</g>
</g>
<g>
	<g>
		<path class="st1" d="M971.35,1033.26c8.86,1.41,17.96-0.17,25.75-4.67c7.7-4.45,13.43-11.61,16.51-19.92
			c1.68-4.54,2.46-9.47,2.29-14.31c-0.13-3.85-6.13-3.87-6,0c0.25,7.47-2.07,14.75-6.52,20.8c-4.39,5.97-11.03,10.04-18.19,11.76
			c-3.97,0.95-8.22,1.18-12.25,0.54c-1.6-0.25-3.23,0.41-3.69,2.1C968.86,1030.99,969.74,1033,971.35,1033.26L971.35,1033.26z"/>
	</g>
</g>
<g>
	<g>
		<path class="st1" d="M1007.21,1049.23c11.31-4.81,20.02-15.15,23.09-27.02c0.96-3.74-4.82-5.34-5.79-1.6
			c-2.71,10.51-10.3,19.17-20.33,23.43c-1.49,0.63-1.82,2.83-1.08,4.1C1004,1049.7,1005.71,1049.87,1007.21,1049.23L1007.21,1049.23
			z"/>
	</g>
</g>
<path class="st7" d="M679,464l19.25-6.07c6.8-2.14,14.09,1.43,16.56,8.12l4.65,12.62"/>
<path class="st7" d="M690,443l19.25-6.07c6.8-2.14,14.09,1.43,16.56,8.12l4.65,12.62"/>
<path class="st7" d="M380.09,849.75l-19.25,6.07c-6.8,2.14-14.09-1.43-16.56-8.12l-4.65-12.62"/>
<path class="st7" d="M369.09,870.75l-19.25,6.07c-6.8,2.14-14.09-1.43-16.56-8.12l-4.65-12.62"/>
</svg>
