<?xml version="1.0" encoding="utf-8"?>
<!-- Generator: Adobe Illustrator 27.4.0, SVG Export Plug-In . SVG Version: 6.00 Build 0)  -->
<svg version="1.1" id="Capa_1" xmlns="http://www.w3.org/2000/svg" xmlns:xlink="http://www.w3.org/1999/xlink" x="0px" y="0px"
	 viewBox="0 0 1125 918.21" style="enable-background:new 0 0 1125 918.21;" xml:space="preserve">
<style type="text/css">
	.st0{fill:#E7FD7B;}
	.st1{opacity:0.6;fill:#E7FD7B;}
	.st2{fill:none;stroke:#000000;stroke-width:4;stroke-miterlimit:10;}
	.st3{fill:#FFFFFF;}
	.st4{fill:#E5E5E5;}
	.st5{fill:none;stroke:#ADADAD;stroke-miterlimit:10;}
	.st6{fill:#303030;}
	.st7{fill:#ADADAD;}
	.st8{fill:#A9F49F;}
	.st9{fill:#FEC84D;}
	.st10{fill:#E26A64;}
	.st11{fill:#FCD695;}
	.st12{fill:#232323;}
	.st13{fill:#87867B;}
	.st14{opacity:0.31;fill:#FFFFFF;}
</style>
<circle class="st0" cx="584.66" cy="506.1" r="328.22"/>
<path class="st1" d="M666.9,843.09c0,0-661.43,72.44-608.37-294.43c47.94-331.45,364.95-291.08,491.83-419.73
	s411.78-55.14,471.72,119.46S1042.65,798.22,666.9,843.09z"/>
<path class="st2" d="M792.31,717.92l-304.89,76.37c-9.08,2.27-18.29-3.24-20.56-12.32L355.65,337.95
	c-2.27-9.08,3.24-18.29,12.32-20.56l304.89-76.37c9.08-2.27,18.29,3.24,20.56,12.32l111.21,444.01
	C806.91,706.44,801.39,715.64,792.31,717.92z"/>
<g>
	<path class="st3" d="M567.41,229.31l-252.25,65.54c-7.36,1.91-11.78,9.43-9.86,16.79l119.03,458.14
		c1.91,7.36,9.43,11.78,16.79,9.86l316.71-82.28c7.36-1.91,11.78-9.43,9.86-16.79L665.4,286.89L567.41,229.31z"/>
	<path class="st4" d="M567.41,229.31l17.55,67.54c1.71,6.57,8.42,10.52,15,8.81l65.88-17.12L567.41,229.31z"/>
</g>
<circle class="st5" cx="701.33" cy="610.64" r="13.84"/>
<path class="st6" d="M533.8,369.26l-161.41,40.43c-1.9,0.48-3.82-0.68-4.3-2.58l-2.94-11.75c-0.48-1.9,0.68-3.82,2.58-4.3
	l161.41-40.43c1.9-0.48,3.82,0.68,4.3,2.58l2.94,11.75C536.85,366.86,535.7,368.79,533.8,369.26z"/>
<path class="st7" d="M616.55,423.08L392.9,479.1c-1.9,0.48-3.82-0.68-4.3-2.58l-2.85-11.39c-0.48-1.9,0.68-3.82,2.58-4.3
	l223.65-56.02c1.9-0.48,3.82,0.68,4.3,2.58l2.85,11.39C619.6,420.68,618.45,422.6,616.55,423.08z"/>
<path class="st7" d="M643.55,521.93l-223.65,56.02c-1.9,0.48-3.82-0.68-4.3-2.58l-2.85-11.39c-0.48-1.9,0.68-3.82,2.58-4.3
	l223.65-56.02c1.9-0.48,3.82,0.68,4.3,2.58l2.85,11.39C646.6,519.53,645.44,521.46,643.55,521.93z"/>
<path class="st7" d="M629.73,475.69l-223.65,56.02c-1.9,0.48-3.82-0.68-4.3-2.58l-2.85-11.39c-0.48-1.9,0.68-3.82,2.58-4.3
	l223.65-56.02c1.9-0.48,3.82,0.68,4.3,2.58l2.85,11.39C632.78,473.29,631.63,475.22,629.73,475.69z"/>
<path class="st7" d="M669.1,628.42l-223.65,56.02c-1.9,0.48-3.82-0.68-4.3-2.58l-2.85-11.39c-0.48-1.9,0.68-3.82,2.58-4.3
	l223.65-56.02c1.9-0.48,3.82,0.68,4.3,2.58l2.85,11.39C672.15,626.02,671,627.94,669.1,628.42z"/>
<path class="st7" d="M655.28,573.26l-223.65,56.02c-1.9,0.48-3.82-0.68-4.3-2.58l-2.85-11.39c-0.48-1.9,0.68-3.82,2.58-4.3
	l223.65-56.02c1.9-0.48,3.82,0.68,4.3,2.58l2.85,11.39C658.34,570.86,657.18,572.78,655.28,573.26z"/>
<circle class="st8" cx="651.84" cy="404.54" r="13.84"/>
<circle class="st8" cx="663.29" cy="457.58" r="13.84"/>
<circle class="st5" cx="677.12" cy="503.82" r="13.84"/>
<circle class="st5" cx="687.49" cy="555.49" r="13.84"/>
<g>
	<g>
		
			<rect x="814.86" y="296.42" transform="matrix(-0.8862 -0.4634 0.4634 -0.8862 1352.7169 1241.9664)" class="st9" width="28.12" height="316.79"/>
		<path class="st10" d="M925.57,262.27l6.35,3.32c5.13,2.68,7.11,9.02,4.43,14.14l-18.54,35.46l-24.92-13.03l18.54-35.46
			C914.11,261.57,920.44,259.58,925.57,262.27z"/>
		<path class="st11" d="M768.54,600.64c-0.55,1.06-24.81,31.16-24.81,31.16l-12.53-6.39l12.42-37.81c0,0,3.55-3.82,7.08-3.18
			c3.53,0.65,3.06,7.46,3.06,7.46l5.2-3.28c2.64,1.62,3.92,8.05,3.92,8.05l4.45-3.01C771,595.49,768.54,600.64,768.54,600.64z"/>
		<path class="st12" d="M743.73,631.8c-0.47,0.62-13.87,16.88-15.69,15.93c-1.82-0.95,3.16-22.34,3.16-22.34L743.73,631.8z"/>
		
			<rect x="889.37" y="289.48" transform="matrix(-0.8862 -0.4634 0.4634 -0.8862 1559.2714 1007.7556)" class="st13" width="28.12" height="45.71"/>
		<path class="st13" d="M887.44,315.44l22.76,11.9c2.22,1.16,3.08,3.91,1.92,6.13l0,0c-1.16,2.22-3.91,3.08-6.13,1.92l-22.76-11.9
			c-2.22-1.16-3.08-3.91-1.92-6.13l0,0C882.47,315.14,885.21,314.28,887.44,315.44z"/>
		<path class="st13" d="M901.85,287.89l22.76,11.9c2.22,1.16,3.08,3.91,1.92,6.13l0,0c-1.16,2.22-3.91,3.08-6.13,1.92l-22.76-11.9
			c-2.22-1.16-3.08-3.91-1.92-6.13l0,0C896.88,287.58,899.62,286.72,901.85,287.89z"/>
		<path class="st14" d="M909.3,334.75c0.74,0,1.54-0.46,1.67-1.19c0.18-0.99-0.85-1.74-1.74-2.22c-4.17-2.23-8.35-4.47-12.52-6.7
			c-0.97-0.52-2.35-0.97-3.03-0.1c-0.4,0.52-0.3,1.31,0.08,1.85c0.37,0.55,0.95,0.91,1.51,1.25c2.61,1.61,5.25,3.65,8.07,4.87
			C904.92,333.21,907.63,334.74,909.3,334.75z"/>
		<path class="st14" d="M919.34,302.17c-3.67-1.91-7.34-3.81-11.02-5.72c-0.4-0.21-0.82-0.42-1.27-0.41
			c-0.45,0.01-0.93,0.33-0.95,0.78c-0.02,0.49,0.46,0.84,0.89,1.08c4.47,2.55,9.01,5.89,13.72,7.92c0.86,0.37,3.42,1.5,3.8-0.17
			C924.8,304.42,920.17,302.61,919.34,302.17z"/>
		<path class="st14" d="M932.4,280.61c0.55-1.05,1.1-2.12,1.38-3.27c0.75-3.14-0.89-6.7-3.77-8.16c-1.26-0.64-2.79-0.89-4.11-0.38
			c-0.23,0.09-0.46,0.21-0.58,0.43c-0.12,0.22-0.1,0.48-0.04,0.72c0.38,1.75,2.08,2.97,2.51,4.7c0.34,1.35-0.15,2.75-0.65,4.04
			c-1.44,3.65-3.15,7.18-5.12,10.57c-0.24,0.41-0.48,0.83-0.5,1.31c-0.01,0.35,0.11,0.69,0.28,1.01c2.19,4.17,4.26,1.21,5.59-1.33
			C929.06,287.02,930.73,283.82,932.4,280.61z"/>
	</g>
	<path class="st14" d="M799.4,530.45c27.54-55.79,55.48-101.23,81.73-157.38c2.07-4.44,9.87-16.74,10.55-20.7
		c0.67-3.97-0.73-6.66-3.55-4.48c-2.66,2.06-4.76,10.7-6.81,14.83c-31.11,62.53-64.81,121.52-96.92,184.33
		c-3.41,6.66-7.97,19.03-0.55,11.61C789.3,553.22,795.63,538.09,799.4,530.45z"/>
</g>
<circle class="st3" cx="256.44" cy="418.37" r="31.79"/>
<circle class="st0" cx="732.08" cy="127.39" r="31.79"/>
<circle class="st0" cx="919.38" cy="807.22" r="27.14"/>
<circle class="st0" cx="274.94" cy="780.09" r="59.1"/>
</svg>
